<?xml version="1.0" encoding="UTF-8"?>
<mxfile host="app.diagrams.net" agent="Mozilla/5.0 (Windows NT 10.0; Win64; x64) AppleWebKit/537.36 (KHTML, like Gecko) Chrome/131.0.0.0 Safari/537.36" scale="1" border="0" version="25.0.3">
  <diagram name="Page-1" id="iYgXK4nyWQANet0cb7Hc">
    <mxGraphModel dx="956" dy="357" grid="1" gridSize="10" guides="1" tooltips="1" connect="1" arrows="1" fold="1" page="1" pageScale="1" pageWidth="280" pageHeight="70" math="0" shadow="0">
      <root>
        <mxCell id="0" />
        <mxCell id="1" parent="0" />
        <mxCell id="ilTGyurUvuYVA-2Tb_Qw-2" value="Author" style="swimlane;fontStyle=1;align=center;verticalAlign=top;childLayout=stackLayout;horizontal=1;startSize=26;horizontalStack=0;resizeParent=1;resizeParentMax=0;resizeLast=0;collapsible=1;marginBottom=0;whiteSpace=wrap;html=1;" parent="1" vertex="1">
          <mxGeometry x="320" y="257" width="190" height="81" as="geometry" />
        </mxCell>
        <mxCell id="ilTGyurUvuYVA-2Tb_Qw-3" value="+ Cheeps : ICollection&amp;lt;Cheep&amp;gt;&lt;div&gt;+ Follows : ICollection&amp;lt;Author&amp;gt;&lt;/div&gt;&lt;div&gt;+&amp;nbsp;&lt;span style=&quot;background-color: initial;&quot;&gt;UserCreatedUserName : string&lt;/span&gt;&lt;/div&gt;" style="text;strokeColor=none;fillColor=none;align=left;verticalAlign=top;spacingLeft=4;spacingRight=4;overflow=hidden;rotatable=0;points=[[0,0.5],[1,0.5]];portConstraint=eastwest;whiteSpace=wrap;html=1;" parent="ilTGyurUvuYVA-2Tb_Qw-2" vertex="1">
          <mxGeometry y="26" width="190" height="54" as="geometry" />
        </mxCell>
        <mxCell id="ilTGyurUvuYVA-2Tb_Qw-4" value="" style="line;strokeWidth=1;fillColor=none;align=left;verticalAlign=middle;spacingTop=-1;spacingLeft=3;spacingRight=3;rotatable=0;labelPosition=right;points=[];portConstraint=eastwest;strokeColor=none;" parent="ilTGyurUvuYVA-2Tb_Qw-2" vertex="1">
          <mxGeometry y="80" width="190" height="1" as="geometry" />
        </mxCell>
        <mxCell id="ilTGyurUvuYVA-2Tb_Qw-5" value="Cheep" style="swimlane;fontStyle=1;align=center;verticalAlign=top;childLayout=stackLayout;horizontal=1;startSize=26;horizontalStack=0;resizeParent=1;resizeParentMax=0;resizeLast=0;collapsible=1;marginBottom=0;whiteSpace=wrap;html=1;" parent="1" vertex="1">
          <mxGeometry x="640" y="243.5" width="160" height="110" as="geometry" />
        </mxCell>
        <mxCell id="ilTGyurUvuYVA-2Tb_Qw-6" value="+ CheepId : int&lt;div&gt;+ AuthorId : string&lt;/div&gt;&lt;div&gt;+ Author : Author&lt;/div&gt;&lt;div&gt;+ Text : string&lt;/div&gt;&lt;div&gt;+ TimeStamp : DateTime&lt;/div&gt;" style="text;strokeColor=none;fillColor=none;align=left;verticalAlign=top;spacingLeft=4;spacingRight=4;overflow=hidden;rotatable=0;points=[[0,0.5],[1,0.5]];portConstraint=eastwest;whiteSpace=wrap;html=1;" parent="ilTGyurUvuYVA-2Tb_Qw-5" vertex="1">
          <mxGeometry y="26" width="160" height="84" as="geometry" />
        </mxCell>
        <mxCell id="ilTGyurUvuYVA-2Tb_Qw-8" value="IdentityUser" style="swimlane;fontStyle=1;align=center;verticalAlign=top;childLayout=stackLayout;horizontal=1;startSize=26;horizontalStack=0;resizeParent=1;resizeParentMax=0;resizeLast=0;collapsible=1;marginBottom=0;whiteSpace=wrap;html=1;swimlaneLine=1;" parent="1" vertex="1">
          <mxGeometry x="20" y="237" width="180" height="123" as="geometry" />
        </mxCell>
        <mxCell id="ilTGyurUvuYVA-2Tb_Qw-9" value="+ Id : TKey&lt;div&gt;+&amp;nbsp;&lt;span style=&quot;background-color: initial;&quot;&gt;UserName : string&lt;/span&gt;&lt;/div&gt;&lt;div&gt;+ Email&lt;span style=&quot;background-color: initial;&quot;&gt;&amp;nbsp;: string&lt;/span&gt;&lt;/div&gt;&lt;div&gt;&lt;div&gt;+ Normalized&lt;span style=&quot;background-color: initial;&quot;&gt;UserName : string&lt;/span&gt;&lt;/div&gt;&lt;div&gt;+ NormalizedEmail&lt;span style=&quot;background-color: initial;&quot;&gt;&amp;nbsp;: string&lt;/span&gt;&lt;/div&gt;&lt;/div&gt;&lt;div&gt;&lt;span style=&quot;background-color: initial;&quot;&gt;+ PasswordHash : string&lt;/span&gt;&lt;/div&gt;" style="text;strokeColor=none;fillColor=none;align=left;verticalAlign=top;spacingLeft=4;spacingRight=4;overflow=hidden;rotatable=0;points=[[0,0.5],[1,0.5]];portConstraint=eastwest;whiteSpace=wrap;html=1;" parent="ilTGyurUvuYVA-2Tb_Qw-8" vertex="1">
          <mxGeometry y="26" width="180" height="94" as="geometry" />
        </mxCell>
        <mxCell id="ilTGyurUvuYVA-2Tb_Qw-10" value="" style="line;strokeWidth=1;fillColor=none;align=left;verticalAlign=middle;spacingTop=-1;spacingLeft=3;spacingRight=3;rotatable=0;labelPosition=right;points=[];portConstraint=eastwest;strokeColor=none;" parent="ilTGyurUvuYVA-2Tb_Qw-8" vertex="1">
          <mxGeometry y="120" width="180" height="3" as="geometry" />
        </mxCell>
        <mxCell id="ilTGyurUvuYVA-2Tb_Qw-14" value="" style="endArrow=classic;html=1;rounded=0;entryX=0.685;entryY=-0.011;entryDx=0;entryDy=0;entryPerimeter=0;" parent="1" target="ilTGyurUvuYVA-2Tb_Qw-2" edge="1">
          <mxGeometry width="50" height="50" relative="1" as="geometry">
            <mxPoint x="370" y="257" as="sourcePoint" />
            <mxPoint x="410" y="120" as="targetPoint" />
            <Array as="points">
              <mxPoint x="370" y="200" />
              <mxPoint x="450" y="200" />
            </Array>
          </mxGeometry>
        </mxCell>
        <mxCell id="ilTGyurUvuYVA-2Tb_Qw-16" value="Follows" style="edgeLabel;html=1;align=center;verticalAlign=middle;resizable=0;points=[];" parent="ilTGyurUvuYVA-2Tb_Qw-14" vertex="1" connectable="0">
          <mxGeometry x="-0.639" y="-2" relative="1" as="geometry">
            <mxPoint x="-24" y="4" as="offset" />
          </mxGeometry>
        </mxCell>
        <mxCell id="ilTGyurUvuYVA-2Tb_Qw-17" value="0..*" style="text;html=1;align=center;verticalAlign=middle;resizable=0;points=[];autosize=1;strokeColor=none;fillColor=none;fontSize=11;" parent="1" vertex="1">
          <mxGeometry x="447" y="233" width="40" height="30" as="geometry" />
        </mxCell>
        <mxCell id="ilTGyurUvuYVA-2Tb_Qw-18" value="1" style="text;html=1;align=center;verticalAlign=middle;resizable=0;points=[];autosize=1;strokeColor=none;fillColor=none;fontSize=11;" parent="1" vertex="1">
          <mxGeometry x="510" y="277" width="30" height="30" as="geometry" />
        </mxCell>
        <mxCell id="ilTGyurUvuYVA-2Tb_Qw-19" value="0..*" style="text;html=1;align=center;verticalAlign=middle;resizable=0;points=[];autosize=1;strokeColor=none;fillColor=none;fontSize=11;" parent="1" vertex="1">
          <mxGeometry x="606" y="277" width="40" height="30" as="geometry" />
        </mxCell>
        <mxCell id="f_8eETZqevNNBeEfARp9-2" value="" style="edgeStyle=orthogonalEdgeStyle;rounded=0;orthogonalLoop=1;jettySize=auto;html=1;exitX=-0.001;exitY=0.343;exitDx=0;exitDy=0;exitPerimeter=0;endArrow=block;endFill=0;" parent="1" edge="1">
          <mxGeometry relative="1" as="geometry">
            <Array as="points" />
            <mxPoint x="320" y="300.77" as="sourcePoint" />
            <mxPoint x="200" y="301" as="targetPoint" />
          </mxGeometry>
        </mxCell>
        <mxCell id="f_8eETZqevNNBeEfARp9-4" value="" style="endArrow=classic;startArrow=classic;html=1;rounded=0;entryX=1.008;entryY=0.332;entryDx=0;entryDy=0;entryPerimeter=0;" parent="1" target="ilTGyurUvuYVA-2Tb_Qw-3" edge="1">
          <mxGeometry width="50" height="50" relative="1" as="geometry">
            <mxPoint x="640" y="300" as="sourcePoint" />
            <mxPoint x="630" y="315" as="targetPoint" />
          </mxGeometry>
        </mxCell>
      </root>
    </mxGraphModel>
  </diagram>
</mxfile>
